<mxfile host="app.diagrams.net" modified="2024-01-10T15:11:52.776Z" agent="Mozilla/5.0 (X11; Ubuntu; Linux x86_64; rv:121.0) Gecko/20100101 Firefox/121.0" etag="x8pYarPFTbkOIlxo8TY-" version="22.1.18" type="device">
  <diagram name="Page-1" id="FmkuN3vsvHSO-k2kaIhQ">
    <mxGraphModel dx="964" dy="435" grid="1" gridSize="10" guides="1" tooltips="1" connect="1" arrows="1" fold="1" page="1" pageScale="1" pageWidth="827" pageHeight="1169" math="0" shadow="0">
      <root>
        <mxCell id="0" />
        <mxCell id="1" parent="0" />
        <mxCell id="HWvTcIoPCb0u8QD_1lb3-5" style="edgeStyle=orthogonalEdgeStyle;rounded=0;orthogonalLoop=1;jettySize=auto;html=1;entryX=0;entryY=0.5;entryDx=0;entryDy=0;" edge="1" parent="1" source="HWvTcIoPCb0u8QD_1lb3-1" target="HWvTcIoPCb0u8QD_1lb3-2">
          <mxGeometry relative="1" as="geometry" />
        </mxCell>
        <mxCell id="HWvTcIoPCb0u8QD_1lb3-1" value="&lt;div&gt;Accueil&lt;/div&gt;&lt;br&gt;Liste des catégories" style="rounded=0;whiteSpace=wrap;html=1;" vertex="1" parent="1">
          <mxGeometry x="140" y="60" width="120" height="60" as="geometry" />
        </mxCell>
        <mxCell id="HWvTcIoPCb0u8QD_1lb3-6" style="edgeStyle=orthogonalEdgeStyle;rounded=0;orthogonalLoop=1;jettySize=auto;html=1;entryX=0.5;entryY=0;entryDx=0;entryDy=0;" edge="1" parent="1" source="HWvTcIoPCb0u8QD_1lb3-2" target="HWvTcIoPCb0u8QD_1lb3-4">
          <mxGeometry relative="1" as="geometry" />
        </mxCell>
        <mxCell id="HWvTcIoPCb0u8QD_1lb3-2" value="categorie&lt;br&gt;&lt;br&gt;Détails de la catégorie&lt;br&gt;Liste des sous catégories" style="rounded=0;whiteSpace=wrap;html=1;" vertex="1" parent="1">
          <mxGeometry x="420" y="60" width="210" height="60" as="geometry" />
        </mxCell>
        <mxCell id="HWvTcIoPCb0u8QD_1lb3-3" value="produit&lt;br&gt;&lt;br&gt;détails du produit" style="rounded=0;whiteSpace=wrap;html=1;" vertex="1" parent="1">
          <mxGeometry x="230" y="310" width="120" height="60" as="geometry" />
        </mxCell>
        <mxCell id="HWvTcIoPCb0u8QD_1lb3-7" style="edgeStyle=orthogonalEdgeStyle;rounded=0;orthogonalLoop=1;jettySize=auto;html=1;entryX=1;entryY=0.5;entryDx=0;entryDy=0;" edge="1" parent="1" source="HWvTcIoPCb0u8QD_1lb3-4" target="HWvTcIoPCb0u8QD_1lb3-3">
          <mxGeometry relative="1" as="geometry" />
        </mxCell>
        <mxCell id="HWvTcIoPCb0u8QD_1lb3-4" value="produits&lt;br&gt;&lt;br&gt;détails de la sousCatégorie&lt;br&gt;Liste des produits" style="rounded=0;whiteSpace=wrap;html=1;" vertex="1" parent="1">
          <mxGeometry x="470" y="290" width="210" height="60" as="geometry" />
        </mxCell>
      </root>
    </mxGraphModel>
  </diagram>
</mxfile>
